<?xml version="1.0" standalone="no"?>
<!DOCTYPE svg PUBLIC "-//W3C//DTD SVG 20010904//EN"
 "http://www.w3.org/TR/2001/REC-SVG-20010904/DTD/svg10.dtd">
<svg version="1.0" xmlns="http://www.w3.org/2000/svg"
 width="512.000000pt" height="512.000000pt" viewBox="0 0 512.000000 512.000000"
 preserveAspectRatio="xMidYMid meet">
<metadata>
Created by potrace 1.14, written by Peter Selinger 2001-2017
</metadata>
<g transform="translate(0.000000,512.000000) scale(0.100000,-0.100000)"
fill="#000000" stroke="none">
<path d="M3986 5105 c-11 -8 -16 -15 -10 -15 5 0 18 7 28 15 11 8 16 15 10 15
-5 0 -18 -7 -28 -15z"/>
<path d="M4040 5094 c-19 -14 -73 -46 -120 -71 -47 -25 -125 -69 -175 -98
-116 -68 -176 -98 -182 -91 -9 9 8 26 48 46 21 11 39 23 39 26 0 3 -26 -8 -57
-25 -31 -17 -63 -31 -70 -31 -16 0 -17 -16 -2 -26 6 -3 9 -15 6 -25 -6 -20 14
-41 34 -37 10 2 13 -5 11 -23 -3 -33 27 -60 76 -68 33 -6 37 -9 34 -33 -3 -24
1 -28 40 -39 24 -6 63 -17 88 -25 98 -29 111 -28 175 10 68 41 81 44 90 16 6
-18 19 -25 69 -32 36 -5 28 -27 -19 -55 -86 -51 -89 -55 -76 -94 15 -45 41
-67 109 -90 64 -22 104 -24 167 -7 24 7 46 10 48 7 3 -2 7 -21 11 -41 l7 -37
-191 -96 c-104 -52 -190 -97 -190 -100 0 -2 7 -2 15 1 11 5 15 -1 15 -17 0
-20 -17 -33 -106 -79 -134 -70 -128 -68 -122 -31 2 17 2 31 -2 31 -3 0 -11 40
-18 90 -30 220 -166 475 -344 647 -229 219 -614 331 -958 278 -249 -38 -407
-114 -562 -272 -94 -95 -124 -136 -187 -256 -88 -165 -141 -377 -161 -644 -8
-110 -7 -140 6 -183 8 -29 14 -53 12 -55 -2 -1 -22 -12 -45 -24 -41 -20 -73
-63 -73 -96 0 -8 -9 -15 -20 -15 -25 0 -35 -36 -21 -73 8 -19 18 -27 35 -27
20 0 29 -9 46 -47 24 -55 80 -116 120 -133 25 -10 29 -20 45 -98 9 -48 32
-134 50 -192 19 -58 43 -143 55 -190 20 -83 88 -276 118 -335 9 -18 17 -66 19
-124 2 -73 9 -107 27 -145 29 -63 105 -151 106 -122 0 16 3 15 21 -8 11 -14
27 -26 35 -26 8 0 19 -11 24 -25 12 -32 18 -31 63 6 28 23 37 27 37 14 0 -13
7 -15 35 -9 30 5 35 3 40 -17 19 -78 21 -76 -120 -154 -75 -41 -155 -94 -189
-125 -37 -35 -92 -71 -155 -100 -53 -26 -141 -74 -196 -107 -55 -33 -156 -93
-225 -133 -232 -135 -378 -238 -480 -337 -54 -52 -101 -95 -105 -95 -8 0 -48
29 -89 64 -17 14 -38 27 -46 29 -25 5 -83 -12 -99 -29 -15 -14 -16 -14 -19 1
-4 21 -25 22 -42 2 -7 -8 -19 -15 -27 -15 -9 0 -13 -8 -11 -22 4 -29 -28 -37
-36 -10 -4 11 -25 35 -46 52 -53 43 -54 77 -3 119 36 29 38 30 127 25 110 -6
111 -6 160 2 63 11 131 88 95 109 -5 4 -9 17 -7 29 3 27 -19 58 -55 73 -15 7
-27 17 -27 23 0 6 -12 15 -26 20 -14 6 -22 14 -19 20 4 7 12 7 25 0 13 -7 21
-6 30 5 14 16 40 20 40 6 0 -15 24 -19 50 -8 14 5 32 9 41 8 26 -3 52 36 52
78 0 32 -6 44 -36 71 -21 18 -37 39 -37 47 0 23 -72 93 -94 93 -11 0 -32 11
-46 25 -20 20 -44 27 -109 37 -71 10 -84 15 -91 34 -5 12 -14 25 -19 29 -20
12 -11 32 19 45 23 10 30 19 30 41 0 33 -41 79 -70 79 -11 0 -24 9 -30 20 -6
11 -21 20 -33 20 -13 0 -28 5 -33 10 -6 6 -48 13 -92 16 -89 5 -96 2 -179 -64
-31 -25 -43 -42 -45 -65 -2 -24 -8 -33 -25 -35 l-23 -3 0 -260 c0 -243 1 -259
18 -259 25 0 42 -19 42 -48 0 -21 -3 -23 -30 -17 l-30 7 0 -65 c0 -49 4 -66
15 -71 12 -4 14 -14 9 -41 -8 -44 13 -55 63 -31 34 16 35 16 40 -4 3 -13 14
-20 29 -20 28 0 33 -25 7 -35 -12 -4 -24 1 -35 14 -19 25 -34 27 -42 6 -3 -8
-1 -15 4 -15 6 0 10 -7 10 -15 0 -17 26 -21 32 -5 2 7 10 5 22 -3 19 -14 19
-15 -2 -26 -13 -7 -28 -8 -35 -4 -6 4 -20 6 -30 5 -9 -2 -17 3 -17 10 0 7 -12
21 -26 32 -31 22 -44 10 -44 -41 0 -36 2 -38 31 -23 16 9 19 7 19 -8 0 -28 20
-42 63 -42 30 0 40 -4 44 -20 3 -13 14 -20 29 -20 13 0 37 -14 54 -30 17 -17
37 -30 45 -30 8 0 15 -4 15 -10 0 -5 -7 -10 -16 -10 -12 0 -15 -6 -10 -25 8
-32 -4 -32 -35 1 -15 16 -30 23 -43 20 -30 -8 -95 16 -98 37 -2 10 -5 17 -8
15 -3 -1 -16 5 -30 15 -30 21 -60 22 -60 2 0 -8 9 -15 20 -15 21 0 27 -15 10
-25 -16 -10 1 -35 25 -35 45 0 57 -51 18 -77 -13 -8 -23 -20 -23 -25 0 -12 29
-7 92 18 41 16 51 16 87 4 48 -15 52 -26 14 -41 -27 -10 -27 -11 -9 -25 11 -8
32 -14 47 -14 15 0 31 -5 34 -10 4 -6 21 -8 40 -4 25 4 36 1 46 -13 12 -16 31
-19 144 -21 71 -2 131 -5 133 -6 2 -2 -6 -23 -17 -47 -11 -24 -34 -83 -52
-131 l-32 -86 -45 -7 c-32 -5 -47 -3 -54 7 -8 10 -9 10 -5 -2 2 -8 0 -23 -5
-33 -7 -14 -4 -17 15 -17 12 0 28 5 33 10 27 27 61 -28 35 -55 -5 -6 -18 -40
-29 -77 l-20 -68 314 0 314 0 16 39 c8 22 23 42 31 45 26 10 45 -14 41 -51
l-4 -33 127 0 128 0 11 57 c21 106 101 407 142 533 91 283 241 624 307 700
l31 35 -36 -85 c-75 -175 -87 -207 -120 -311 -62 -195 -113 -455 -154 -779 -5
-47 -13 -100 -16 -117 -6 -41 7 -43 24 -3 32 72 246 356 417 553 133 154 442
459 591 584 45 37 133 111 195 164 252 213 475 366 709 487 69 35 126 66 128
67 2 1 -11 16 -28 33 -45 45 -40 55 27 50 50 -4 60 -9 91 -44 90 -100 120
-131 151 -157 l33 -27 -214 -213 c-117 -116 -229 -232 -248 -257 -18 -25 -85
-84 -148 -130 -193 -143 -649 -606 -1018 -1035 -77 -90 -92 -109 -78 -104 6 2
35 33 65 69 44 53 261 302 279 320 3 3 32 34 64 70 153 167 451 463 571 566
81 70 195 156 195 148 0 -3 -20 -31 -44 -62 -23 -31 -107 -147 -186 -257 -133
-185 -238 -326 -529 -707 l-112 -148 289 0 288 0 30 40 c37 51 83 74 118 60
30 -11 34 -43 10 -78 l-15 -22 915 0 916 0 0 640 0 640 -110 55 -110 55 0 383
c0 210 3 399 6 419 l6 37 104 28 104 28 0 38 c0 20 -1 37 -3 37 -1 0 -67 -18
-147 -40 -80 -22 -146 -40 -147 -40 -2 0 -3 35 -3 78 l0 78 41 21 40 20 2 209
2 208 39 22 c21 12 34 24 30 26 -5 3 -3 3 5 1 8 -2 43 6 78 18 46 17 63 28 63
41 0 14 -8 18 -41 18 -25 0 -38 4 -34 10 4 6 21 8 41 4 27 -5 34 -3 34 10 0
12 -10 16 -36 16 -27 0 -41 -7 -60 -29 -14 -17 -33 -33 -43 -36 -11 -3 -22
-17 -25 -32 -4 -14 -10 -23 -13 -19 -6 6 -6 25 -2 169 l3 82 6 -80 6 -80 2 73
2 72 40 0 c22 0 40 5 40 10 0 6 -10 10 -21 10 -18 0 -19 2 -9 15 8 10 30 15
61 15 l49 0 0 945 0 945 -522 0 -523 -1 -35 -25z m-1164 -139 c240 -39 503
-178 632 -336 89 -109 186 -280 229 -407 43 -129 63 -353 44 -508 -20 -159
-19 -158 -57 -81 -39 76 -86 117 -134 117 -18 0 -59 -13 -92 -30 -41 -21 -73
-30 -106 -30 -48 0 -271 43 -414 80 -94 24 -98 24 -98 3 0 -14 -2 -14 -17 -1
-12 10 -44 15 -98 16 -44 2 -93 5 -110 9 l-30 7 40 7 c22 4 65 8 95 9 l55 1
-89 45 c-49 24 -98 44 -108 44 -10 0 -60 -20 -111 -44 -116 -56 -207 -90 -275
-105 -45 -9 -56 -9 -78 5 -13 9 -27 14 -30 11 -12 -11 9 -49 32 -59 27 -13 31
-33 10 -45 -8 -4 -14 -15 -14 -23 3 -43 -2 -47 -49 -48 -27 -1 -65 -4 -86 -8
-33 -5 -40 -2 -60 22 -12 16 -22 31 -22 34 0 20 -44 44 -103 56 -37 8 -96 24
-130 36 l-64 23 -25 -30 -25 -30 6 105 c31 565 275 964 681 1109 164 59 408
78 601 46z m1028 -22 c3 -10 9 -24 12 -30 8 -18 -26 -16 -50 2 -16 12 -17 17
-6 30 17 20 36 19 44 -2z m-64 -28 c0 -7 -152 -105 -163 -105 -18 0 13 27 53
46 22 10 40 22 40 27 0 4 5 7 11 7 6 0 17 7 25 15 15 15 34 20 34 10z m-195
-125 c-3 -5 -11 -10 -16 -10 -6 0 -7 5 -4 10 3 6 11 10 16 10 6 0 7 -4 4 -10z
m530 -346 c-36 -28 -61 -36 -30 -10 17 14 35 26 40 26 6 -1 1 -8 -10 -16z
m362 -88 c-7 -14 -13 -23 -15 -21 -7 6 9 45 18 45 4 0 3 -11 -3 -24z m-27 -81
c-27 -28 -437 -238 -450 -230 -26 16 2 37 148 109 86 42 190 95 231 116 79 41
107 43 71 5z m-10 -105 c0 -23 -4 -30 -20 -30 -26 0 -48 39 -29 51 30 19 49
10 49 -21z m-421 -222 c10 -28 9 -35 -6 -46 -48 -36 -50 -34 -48 21 2 62 0 57
24 57 12 0 23 -11 30 -32z m-79 -13 c-7 -8 -17 -15 -23 -15 -6 0 -2 7 9 15 25
19 30 19 14 0z m-5 -35 c-28 -12 -37 -12 -30 0 3 6 16 10 28 9 21 0 21 -1 2
-9z m-1282 -142 c15 -6 34 -23 42 -39 22 -42 18 -55 -8 -31 -36 34 -137 57
-137 32 0 -5 13 -10 28 -10 35 0 121 -55 132 -84 16 -41 4 -132 -24 -190 -32
-65 -76 -96 -171 -120 -97 -26 -171 -21 -244 15 -100 50 -147 131 -139 238 7
105 49 131 283 181 129 27 183 29 238 8z m923 -37 c59 -36 124 -187 124 -288
0 -58 -27 -129 -76 -203 -52 -77 -242 -276 -277 -289 -29 -11 -93 1 -114 22
-12 11 -12 38 -3 166 6 83 8 156 5 161 -6 10 12 311 20 318 2 3 10 0 18 -6 9
-8 21 -2 46 24 35 35 180 114 210 114 9 0 30 -9 47 -19z m-677 -63 c8 -7 11
-8 8 -2 -7 12 108 -7 121 -21 4 -4 -6 -3 -22 1 -21 5 -27 4 -22 -5 5 -8 0 -8
-19 -1 -33 13 -38 13 -30 0 3 -5 2 -10 -4 -10 -5 0 -13 5 -16 10 -4 7 -13 6
-27 -1 -11 -6 -32 -8 -46 -5 -18 4 -22 3 -13 -2 10 -7 6 -13 -17 -23 -21 -9
-28 -18 -24 -31 3 -14 13 -18 43 -16 22 2 39 8 39 15 0 6 24 16 53 23 28 6 74
16 100 22 26 6 50 8 53 5 23 -23 35 -297 13 -297 -7 0 -9 -9 -5 -22 9 -37 -5
-171 -18 -158 -27 27 -33 -2 -11 -54 7 -16 6 -17 -13 -7 -11 6 -28 11 -37 11
-14 0 -12 -6 9 -30 21 -26 25 -39 23 -90 -1 -33 -3 -60 -5 -60 -2 0 -17 8 -33
17 -40 24 -45 11 -9 -25 24 -24 30 -39 30 -71 0 -23 -3 -41 -8 -41 -4 0 -24
11 -44 25 -53 36 -70 30 -24 -8 33 -28 38 -38 33 -60 -4 -14 -3 -29 3 -32 5
-3 10 -13 10 -22 0 -14 -3 -14 -20 2 -11 10 -20 13 -20 8 0 -6 7 -16 15 -23 8
-7 15 -27 15 -45 l0 -33 -87 35 c-106 43 -133 61 -198 130 -27 29 -54 53 -59
53 -5 0 -4 -6 2 -12 5 -7 13 -35 17 -62 l8 -49 -30 21 c-16 12 -36 28 -43 38
-18 21 -130 107 -130 99 0 -3 11 -23 25 -45 14 -22 25 -42 25 -45 0 -2 -44 25
-99 60 -54 36 -102 65 -105 65 -4 0 2 -12 11 -27 l18 -28 -30 19 c-16 11 -49
31 -72 44 -24 13 -43 27 -43 32 0 4 -6 7 -12 7 -29 -3 -118 15 -113 23 3 4 15
6 27 2 14 -3 19 -2 14 6 -4 7 -1 12 8 12 8 0 19 -8 25 -17 8 -14 12 -15 22 -6
17 17 -1 36 -55 62 -46 23 -91 27 -101 11 -4 -6 -16 -8 -28 -5 -21 6 -21 6 -3
-9 11 -9 17 -19 13 -22 -7 -8 -37 20 -37 36 0 20 -48 34 -74 22 -19 -8 -26 -8
-30 1 -2 7 -5 4 -5 -6 -1 -10 21 -40 48 -67 46 -46 47 -49 26 -54 -14 -4 -30
-22 -44 -50 -11 -25 -29 -50 -40 -55 -10 -6 -26 -31 -34 -56 -9 -25 -12 -43
-6 -40 10 7 10 -25 -1 -70 -6 -27 -8 -28 -14 -10 -5 11 -15 35 -23 54 -54 122
-138 430 -121 446 3 3 30 10 60 15 30 4 71 15 91 23 33 14 36 14 40 -1 3 -14
5 -15 9 -2 3 8 22 68 43 133 49 150 88 207 144 207 48 0 63 -12 101 -85 40
-75 68 -105 129 -139 47 -25 50 -25 152 -16 122 11 168 23 226 56 43 25 85 84
98 136 4 16 11 25 16 22 5 -3 10 2 10 10 1 9 3 21 4 26 1 6 3 34 4 64 1 50 3
55 29 64 39 15 96 14 111 0z m-1245 -14 l47 -7 -53 -19 c-90 -32 -89 -32 -83
-14 3 9 7 23 10 31 5 17 13 18 79 9z m2600 -9 c3 -8 16 -15 28 -15 13 0 29 -4
35 -8 10 -6 13 -221 15 -989 2 -540 -1 -985 -5 -989 -12 -12 -107 39 -177 96
-99 79 -151 102 -243 108 l-77 5 -60 67 c-51 58 -68 70 -109 80 -27 6 -59 10
-72 8 -19 -3 -24 4 -36 47 -52 198 -113 598 -113 742 0 65 30 184 62 247 11
22 45 68 75 101 61 68 129 194 138 258 4 24 2 66 -3 95 -5 29 -6 55 -1 58 5 3
9 14 9 25 0 23 13 24 44 4 13 -9 46 -20 72 -25 27 -5 70 -14 95 -20 46 -11 47
-11 165 54 124 68 148 76 158 51z m-2463 -35 c29 -6 62 -19 74 -30 23 -22 49
-105 38 -123 -4 -7 -9 -2 -13 13 -7 33 -80 70 -136 70 -35 0 -47 -6 -72 -34
-16 -19 -32 -40 -34 -48 -7 -19 -37 8 -55 50 -16 37 -34 40 -75 11 -36 -26
-60 -79 -53 -114 14 -68 15 -80 6 -65 -19 32 -23 97 -7 134 17 41 80 90 159
123 59 25 91 27 168 13z m-18 -97 c-40 -27 -26 -91 25 -117 25 -13 29 -12 56
10 15 14 30 23 33 20 9 -8 -37 -144 -59 -171 -30 -38 -93 -65 -154 -65 l-51 0
8 43 c4 23 8 70 9 105 0 48 3 62 15 62 8 0 15 -8 16 -17 0 -11 3 -13 6 -5 2 6
9 10 14 6 6 -3 7 10 3 34 -8 49 8 79 49 97 43 19 57 18 30 -2z m-183 -55 c30
-33 30 -33 27 -143 -2 -104 -3 -110 -22 -107 -48 8 -87 67 -109 162 -17 72
-15 79 22 102 39 23 49 22 82 -14z m299 -417 c9 -6 23 -6 35 0 18 8 18 7 -1
-7 -23 -16 -33 -41 -12 -28 11 7 29 -12 29 -31 0 -5 -5 -3 -10 5 -5 8 -10 11
-10 6 0 -6 -13 3 -30 19 -39 38 -40 60 -1 36z m1577 -30 c-9 -16 -23 -63 -32
-103 -17 -81 -15 -149 13 -381 9 -75 14 -139 12 -141 -2 -3 -74 -23 -159 -46
-85 -23 -189 -51 -230 -62 -161 -43 -295 -76 -299 -73 -5 6 53 54 65 55 6 0
32 19 58 43 31 29 49 40 56 33 7 -7 10 -6 10 3 0 8 6 11 15 7 8 -3 25 -1 37 5
20 8 19 9 -7 4 l-30 -5 30 26 c30 25 14 20 -35 -13 -14 -9 5 11 41 45 37 34
80 82 96 106 20 30 33 42 40 35 7 -7 14 0 22 20 7 16 19 32 27 35 11 4 14 30
15 108 1 57 4 128 7 158 l7 55 61 1 c74 2 111 20 155 77 38 51 48 54 25 8z
m1577 2 c-7 -2 -21 -2 -30 0 -10 3 -4 5 12 5 17 0 24 -2 18 -5z m-3006 -19
c-3 -3 -12 -4 -19 -1 -8 3 -5 6 6 6 11 1 17 -2 13 -5z m-22 -24 c-3 -5 -12
-10 -18 -10 -7 0 -6 4 3 10 19 12 23 12 15 0z m2731 -287 c-4 -153 -9 -381
-13 -508 -7 -269 -7 -241 -4 -470 l2 -180 -27 2 c-15 1 -32 7 -38 13 -6 6 -12
60 -13 128 -1 75 1 106 6 87 5 -16 10 -68 11 -115 3 -83 3 -82 11 45 4 72 12
166 18 210 5 46 6 133 2 205 -4 69 -9 115 -9 103 -1 -13 -8 -23 -16 -23 -10 0
-12 9 -5 43 4 24 4 46 -2 51 -5 6 -9 146 -9 325 l0 316 38 21 c20 12 41 22 46
23 5 1 6 -119 2 -276z m34 42 c0 -132 -4 -235 -9 -235 -5 0 -10 97 -10 218 -2
194 2 252 15 252 2 0 4 -106 4 -235z m-2750 217 c0 -4 -9 -8 -20 -9 -11 -1
-18 2 -15 8 7 11 35 12 35 1z m-21 -100 c24 -46 101 -119 135 -128 55 -14 21
-24 -79 -24 -102 0 -107 -1 -131 -27 -13 -14 -27 -23 -31 -19 -8 8 26 76 37
76 4 0 11 21 14 48 7 49 25 112 32 112 2 0 12 -17 23 -38z m2528 5 c14 -9 7
-66 -10 -82 -7 -7 -8 -5 -4 6 3 9 1 22 -3 30 -5 7 -6 -55 -2 -141 7 -159 7
-218 1 -740 l-3 -305 -26 -17 c-14 -10 -20 -18 -13 -18 6 0 15 5 18 10 9 14
28 12 22 -2 -2 -7 2 -21 11 -30 12 -15 7 -14 -29 4 -24 11 -47 25 -50 30 -4 6
-6 282 -5 614 2 556 4 606 20 622 12 12 19 14 24 5 5 -8 13 -9 22 -3 10 7 11
10 3 10 -7 0 -13 4 -13 9 0 10 19 9 37 -2z m-132 -66 c-3 -6 -11 -11 -17 -11
-6 0 -6 6 2 15 14 17 26 13 15 -4z m7 -28 c-6 -2 -10 -9 -7 -13 3 -5 1 -11 -5
-15 -5 -3 -10 3 -10 14 0 14 6 21 18 20 10 0 12 -3 4 -6z m-2092 -89 c89 -26
111 -28 121 -13 6 11 16 5 44 -25 36 -40 62 -106 72 -187 6 -48 -10 -95 -28
-83 -6 3 -17 -4 -26 -15 -12 -17 -18 -20 -29 -10 -8 7 -14 7 -14 1 0 -5 -16
-22 -36 -37 -33 -25 -38 -27 -49 -12 -9 13 -14 14 -24 4 -10 -9 -14 -8 -22 6
-6 9 -14 15 -19 12 -5 -3 -15 3 -22 15 -15 24 -28 26 -28 4 0 -23 -16 -9 -44
42 -27 49 -34 84 -15 84 6 0 8 8 5 18 -6 19 13 54 20 36 3 -6 16 -9 30 -6 15
3 29 0 33 -6 7 -12 51 -5 51 8 0 17 -183 70 -244 70 -53 0 -102 -24 -120 -58
-15 -30 -15 -30 19 -51 19 -11 35 -25 35 -32 0 -28 -33 -120 -50 -141 l-19
-23 -1 29 0 30 -30 -29 -30 -29 0 45 c0 24 -7 66 -15 93 -8 27 -15 78 -15 112
0 62 1 64 33 80 17 9 44 28 59 41 19 18 43 28 85 33 102 13 215 11 273 -6z
m580 -327 c0 -2 -12 -14 -27 -28 l-28 -24 24 28 c23 25 31 32 31 24z m1880
-488 c0 -316 -3 -400 -12 -397 -10 4 -14 95 -16 401 -2 352 -1 397 13 397 13
0 15 -47 15 -401z m-85 169 c8 -44 -2 -118 -16 -118 -5 0 -7 28 -4 63 3 48 2
55 -5 32 -9 -28 -9 -27 -5 10 3 22 5 49 5 60 0 31 18 -1 25 -47z m-38 -135
c-2 -16 -4 -3 -4 27 0 30 2 43 4 28 2 -16 2 -40 0 -55z m-2477 -148 c-7 -8 -9
-15 -5 -15 3 0 -3 -15 -14 -34 l-21 -33 28 5 c15 3 46 18 70 34 l44 30 -4 -28
c-2 -20 -12 -33 -33 -44 -16 -8 -33 -19 -37 -25 -16 -21 -52 -127 -104 -310
-59 -208 -89 -380 -100 -590 l-7 -129 -61 -71 c-77 -88 -172 -210 -265 -342
-40 -57 -74 -103 -76 -103 -12 0 62 463 100 632 45 199 93 342 170 509 102
223 285 529 317 529 7 0 6 -5 -2 -15z m-1990 -26 c0 -5 -4 -9 -10 -9 -5 0 -10
7 -10 16 0 8 5 12 10 9 6 -3 10 -10 10 -16z m100 -2 c0 -7 -9 -18 -20 -25 -16
-10 -20 -10 -20 1 0 14 20 37 32 37 4 0 8 -6 8 -13z m-180 -37 c0 -5 -4 -10
-10 -10 -5 0 -10 5 -10 10 0 6 5 10 10 10 6 0 10 -4 10 -10z m4556 -149 c-4
-5 4 -7 16 -3 13 3 19 1 15 -5 -4 -6 3 -8 18 -5 18 3 25 0 25 -11 0 -26 -16
-28 -54 -10 -33 17 -49 43 -25 43 5 0 8 -4 5 -9z m-4507 -103 c-1 -7 -4 -24
-8 -38 l-7 -25 -12 22 c-7 12 -9 29 -6 37 7 19 34 22 33 4z m61 -24 c0 -14 -4
-23 -10 -19 -5 3 -10 15 -10 26 0 10 5 19 10 19 6 0 10 -12 10 -26z m-40 -127
c-30 -66 -54 -84 -67 -51 -4 10 2 23 14 33 12 9 29 32 38 51 47 95 60 66 15
-33z m306 66 c-10 -10 -19 5 -10 18 6 11 8 11 12 0 2 -7 1 -15 -2 -18z m-30 6
c10 -17 -23 -46 -38 -31 -8 8 -8 15 2 27 15 18 26 19 36 4z m-356 -45 c0 -13
-4 -24 -10 -24 -14 0 -32 40 -26 57 9 22 36 -3 36 -33z m264 -3 c11 -17 -6
-41 -28 -41 -11 0 -39 -14 -60 -30 -40 -30 -66 -38 -66 -20 0 5 8 27 17 49 15
35 20 39 56 39 21 1 42 3 45 6 8 9 30 7 36 -3z m-314 -87 c0 -8 -4 -12 -10 -9
-5 3 -10 10 -10 16 0 5 5 9 10 9 6 0 10 -7 10 -16z m250 -59 c0 -22 -41 -75
-57 -75 -16 0 -17 43 -3 71 13 23 60 26 60 4z m164 -20 c-4 -8 -15 -15 -25
-15 -10 0 -19 7 -19 15 0 9 9 15 25 15 18 0 23 -4 19 -15z m-86 -33 c5 -17
-55 -72 -79 -72 -28 0 -23 24 12 60 32 31 59 36 67 12z m277 -192 c-3 -5 -10
-10 -16 -10 -5 0 -9 5 -9 10 0 6 7 10 16 10 8 0 12 -4 9 -10z m15 -61 c0 -7
11 -9 28 -6 27 5 29 3 30 -24 1 -25 -2 -29 -19 -24 -15 5 -19 2 -19 -14 0 -27
-16 -27 -23 0 -3 11 -15 23 -26 26 -21 5 -29 23 -11 23 6 0 10 7 10 15 0 8 7
15 15 15 8 0 15 -5 15 -11z m-110 -19 c0 -5 7 -10 15 -10 8 0 15 -4 15 -10 0
-5 -7 -10 -16 -10 -18 0 -46 25 -37 34 10 9 23 7 23 -4z m44 -211 c-7 -11 -34
-12 -34 -1 0 14 11 21 26 15 8 -3 11 -9 8 -14z m-294 1 c0 -5 -5 -10 -11 -10
-5 0 -7 5 -4 10 3 6 8 10 11 10 2 0 4 -4 4 -10z"/>
<path d="M3036 4496 c3 -9 11 -16 16 -16 13 0 5 23 -10 28 -7 2 -10 -2 -6 -12z"/>
<path d="M2015 4205 c-40 -10 -44 -13 -20 -14 17 0 44 6 60 14 37 17 25 17
-40 0z"/>
<path d="M1995 4130 l-30 -8 30 0 c17 0 39 3 50 8 l20 9 -20 -1 c-11 0 -33 -4
-50 -8z"/>
<path d="M2137 3907 c-11 -29 -9 -53 4 -40 6 6 9 21 7 34 -3 21 -4 22 -11 6z"/>
<path d="M1969 3860 c-7 -35 -4 -48 7 -38 3 4 4 21 2 40 l-3 33 -6 -35z"/>
<path d="M2450 3688 c-45 -24 -89 -72 -77 -85 4 -3 22 7 40 24 17 17 54 43 81
57 39 21 44 26 25 26 -14 0 -45 -10 -69 -22z"/>
<path d="M2515 3647 c-53 -21 -94 -47 -105 -66 -15 -29 -12 -61 5 -61 8 0 15
6 15 14 0 14 86 96 101 96 5 0 9 -22 9 -48 0 -70 22 -86 110 -83 23 1 30 4 22
10 -16 10 -3 21 46 41 17 7 32 16 32 19 0 13 -55 58 -85 70 -44 17 -116 21
-150 8z"/>
<path d="M2225 3500 c-13 -21 7 -71 42 -105 20 -20 39 -33 42 -29 3 3 -5 13
-17 23 -15 11 -25 31 -29 59 -6 44 -26 72 -38 52z"/>
<path d="M3535 3633 c-38 -20 -50 -37 -71 -93 -10 -25 -24 -53 -32 -62 -8 -10
-13 -18 -11 -19 2 -1 20 -2 39 -4 64 -5 128 -117 99 -171 -6 -13 -17 -21 -22
-17 -6 4 -7 1 -2 -7 6 -10 11 -9 22 5 7 11 13 15 13 9 -1 -12 -30 -50 -30 -38
0 5 -5 2 -11 -6 -9 -13 -10 -12 -5 3 3 9 0 17 -5 17 -6 0 -9 9 -6 19 3 13 0
18 -7 15 -7 -3 -24 17 -40 46 -40 73 -86 94 -86 39 0 -23 5 -32 20 -36 49 -13
26 -91 -51 -171 -17 -18 -29 -35 -27 -38 3 -2 28 1 57 7 29 6 63 8 76 5 27 -7
53 15 114 92 l33 42 -16 71 c-9 39 -25 91 -35 115 -17 38 -24 44 -51 44 -28 0
-31 2 -24 23 10 33 24 47 48 47 28 -1 51 -19 60 -48 5 -14 14 -22 24 -20 13 2
16 12 14 41 -2 20 1 37 7 37 5 0 24 -20 42 -45 18 -25 34 -45 35 -45 6 0 -30
77 -48 103 -18 25 -66 58 -85 57 -4 -1 -21 -8 -38 -17z"/>
<path d="M3445 3569 c-4 -6 -5 -12 -2 -15 2 -3 7 2 10 11 7 17 1 20 -8 4z"/>
<path d="M2666 3285 c-11 -8 -16 -15 -10 -15 5 0 18 7 28 15 11 8 16 15 10 15
-5 0 -18 -7 -28 -15z"/>
<path d="M2588 3253 c7 -3 16 -2 19 1 4 3 -2 6 -13 5 -11 0 -14 -3 -6 -6z"/>
<path d="M2478 3243 c17 -2 47 -2 65 0 17 2 3 4 -33 4 -36 0 -50 -2 -32 -4z"/>
<path d="M1853 3159 c-6 -6 -28 -17 -49 -24 -22 -8 -31 -14 -21 -15 24 0 87
29 87 41 0 12 -4 11 -17 -2z"/>
<path d="M2270 3088 c11 -24 25 -51 30 -60 7 -13 4 -28 -11 -55 l-21 -38 26
24 c35 33 34 72 -6 127 -17 24 -33 44 -35 44 -2 0 6 -19 17 -42z"/>
<path d="M1730 3550 c-11 -7 -2 -10 33 -10 30 0 46 4 42 10 -8 13 -55 13 -75
0z"/>
<path d="M1937 3009 c7 -7 15 -10 18 -7 3 3 -2 9 -12 12 -14 6 -15 5 -6 -5z"/>
<path d="M3098 2293 c7 -3 16 -2 19 1 4 3 -2 6 -13 5 -11 0 -14 -3 -6 -6z"/>
<path d="M4764 1735 c0 -60 1 -84 3 -52 2 32 2 81 0 110 -2 29 -3 3 -3 -58z"/>
<path d="M4761 1563 c-1 -23 3 -44 7 -47 4 -2 6 12 4 32 -5 56 -10 62 -11 15z"/>
<path d="M2077 2689 c7 -7 15 -10 18 -7 3 3 -2 9 -12 12 -14 6 -15 5 -6 -5z"/>
<path d="M4522 2678 l1 -63 7 55 c4 30 7 49 8 42 1 -7 6 -11 12 -7 13 8 1 35
-16 35 -11 0 -14 -15 -12 -62z"/>
<path d="M2310 2460 c0 -5 5 -10 11 -10 5 0 7 5 4 10 -3 6 -8 10 -11 10 -2 0
-4 -4 -4 -10z"/>
<path d="M3822 5009 c-29 -17 -51 -33 -49 -35 5 -6 85 36 98 52 16 19 11 18
-49 -17z"/>
<path d="M3920 4015 c-36 -19 -60 -34 -55 -34 6 0 39 15 75 34 36 19 61 34 55
34 -5 0 -39 -15 -75 -34z"/>
<path d="M15 600 c-3 -5 1 -10 10 -10 9 0 13 5 10 10 -3 6 -8 10 -10 10 -2 0
-7 -4 -10 -10z"/>
<path d="M58 575 c-17 -22 -17 -24 14 -54 25 -25 28 -32 15 -36 -8 -4 -24 -2
-35 4 -40 21 -52 5 -52 -69 l0 -68 37 13 c25 9 42 23 52 43 10 23 26 35 62 46
26 9 59 16 73 16 14 0 28 5 31 10 11 18 41 11 65 -15 13 -14 19 -26 14 -26 -5
-1 7 -5 26 -9 19 -5 45 -11 58 -15 18 -6 22 -4 22 14 0 11 -4 21 -9 21 -5 0
-12 11 -15 24 -7 27 -30 36 -98 36 -26 0 -50 5 -53 10 -4 7 -12 7 -25 0 -10
-5 -26 -7 -34 -4 -10 4 -18 0 -22 -10 -8 -20 -44 -21 -44 -2 0 8 6 17 13 20 8
4 7 9 -7 18 -10 7 -30 23 -45 34 l-26 22 -17 -23z m-31 -137 c-3 -8 -6 -5 -6
6 -1 11 2 17 5 13 3 -3 4 -12 1 -19z"/>
<path d="M548 430 c-3 -10 -18 -15 -44 -15 -62 0 -55 -18 8 -20 41 -2 58 1 62
11 3 8 13 14 21 14 9 0 13 5 10 10 -4 7 -12 7 -25 0 -13 -7 -20 -6 -23 3 -2 8
-5 8 -9 -3z"/>
<path d="M259 413 c-1 -5 -1 -12 0 -17 1 -4 -4 -15 -11 -24 -11 -14 -10 -15 7
-8 11 5 33 11 48 15 15 3 28 9 28 14 -1 4 -1 12 -1 18 0 8 -5 7 -16 -2 -12
-10 -20 -10 -35 -1 -10 7 -20 9 -20 5z"/>
<path d="M94 185 c-18 -19 -19 -25 -7 -29 32 -12 43 -6 43 24 0 36 -8 37 -36
5z"/>
<path d="M15 101 c-3 -6 4 -15 15 -21 20 -11 21 -10 10 9 -12 23 -16 25 -25
12z"/>
<path d="M210 90 c0 -5 14 -10 31 -10 17 0 28 4 24 10 -3 6 -17 10 -31 10 -13
0 -24 -4 -24 -10z"/>
<path d="M443 73 c-7 -2 -13 -9 -13 -14 0 -14 43 -10 64 6 19 14 18 15 -10 14
-16 0 -35 -3 -41 -6z"/>
<path d="M265 20 c-14 -16 -15 -20 -4 -20 16 0 39 19 39 32 0 14 -16 9 -35
-12z"/>
</g>
</svg>
